<svg width="246" height="246" viewBox="0 0 246 246" fill="none" xmlns="http://www.w3.org/2000/svg">
<path d="M203.469 88.9961C199.074 78.5859 192.766 69.25 184.758 61.2422C176.73 53.2148 167.395 46.9258 157.004 42.5312C146.223 37.9609 134.797 35.6562 123 35.6562C111.203 35.6562 99.7773 37.9609 88.9961 42.5312C78.5859 46.9258 69.25 53.2344 61.2422 61.2422C53.2148 69.2695 46.9258 78.6055 42.5312 88.9961C37.9609 99.7773 35.6562 111.203 35.6562 123C35.6562 134.797 37.9609 146.223 42.5312 157.004C46.9258 167.414 53.2344 176.75 61.2422 184.758C69.25 192.766 78.6055 199.074 88.9961 203.469C99.7773 208.02 111.203 210.344 123 210.344C134.797 210.344 146.223 208.039 157.004 203.469C167.414 199.074 176.75 192.766 184.758 184.758C192.766 176.75 199.074 167.395 203.469 157.004C208.02 146.223 210.344 134.797 210.344 123C210.344 111.203 208.039 99.7773 203.469 88.9961ZM123 194.719C83.4492 194.719 51.2812 162.551 51.2812 123C51.2812 83.4492 83.4492 51.2812 123 51.2812C162.551 51.2812 194.719 83.4492 194.719 123C194.719 162.551 162.551 194.719 123 194.719Z" fill="black"/>
<path d="M160.402 115.129H104.328L117.902 101.555C120.949 98.5078 120.949 93.5664 117.902 90.5C114.855 87.4531 109.914 87.4531 106.848 90.5L79.9336 117.414C78.5273 118.82 77.6484 120.773 77.6484 122.941C77.6484 125.09 78.5273 127.062 79.9336 128.469L106.828 155.363C108.352 156.887 110.344 157.648 112.355 157.648C114.367 157.648 116.359 156.887 117.883 155.363C120.93 152.316 120.93 147.375 117.883 144.309L104.309 130.734H160.383C164.699 130.734 168.195 127.238 168.195 122.922C168.215 118.625 164.719 115.129 160.402 115.129Z" fill="black"/>
</svg>
