<svg width="200" height="200" viewBox="0 0 200 200" fill="none" xmlns="http://www.w3.org/2000/svg">
<path d="M163.327 131.541C163.15 127.292 160.372 124.946 156.707 125.033C153.076 125.119 150.681 127.507 150.34 131.85C150.09 135.04 150.304 138.264 150.235 141.472C150.062 149.522 148.319 151.382 140.272 151.541C132.52 151.693 124.763 151.591 117.008 151.591C99.0919 151.593 81.1757 151.606 63.2596 151.581C50.9212 151.564 49.8519 150.498 49.793 138.503C49.7823 136.364 49.8901 134.212 49.6936 132.089C49.2755 127.572 47.1576 125.221 43.5718 125.018C39.7013 124.799 36.8801 127.431 36.5841 132.084C36.3135 136.347 36.4656 140.638 36.4937 144.916C36.5854 158.766 42.7213 164.98 56.5752 165.059C71.0146 165.142 85.4547 165.078 99.8946 165.081C104.173 165.085 108.452 165.086 112.73 165.084C123.694 165.081 134.66 165.233 145.62 165.023C155.282 164.839 162.348 159.249 163.164 150.772C163.776 144.411 163.593 137.943 163.327 131.541Z" fill="black"/>
<path d="M51.2085 88.9515C64.9939 102.745 78.7812 116.536 92.5682 130.328C93.1347 130.894 93.7117 131.451 94.2742 132.021C96.4929 134.27 99.081 135.538 102.216 134.35C103.239 133.963 103.999 133.379 104.649 132.716C105.079 132.419 105.499 132.092 105.881 131.72C112.969 124.828 143.173 94.5271 150.15 87.5214C150.9 86.7689 151.62 85.96 152.212 85.0813C154.108 82.26 153.849 79.4962 151.598 77.0274C149.297 74.5024 146.398 74.3963 143.542 75.8013C142.155 76.4832 141.012 77.7366 139.883 78.8569C135.186 83.5148 118.199 100.487 106.824 111.879C106.83 94.0857 106.832 76.2926 106.829 58.4995C106.828 53.1568 106.998 47.8044 106.733 42.4746C106.487 37.5234 104.084 34.9976 100.215 34.8707C96.2461 34.7404 93.8381 37.1582 93.2971 42.0398C93.0921 43.8893 93.2003 45.7758 93.1993 47.6455C93.193 59.3993 93.1962 71.1535 93.1962 82.9077C93.1958 91.6971 93.1962 100.487 93.1962 109.276L91.3657 110.086C87.8323 106.566 84.2948 103.05 80.7662 99.5252C73.3959 92.1624 66.1213 84.701 58.6217 77.4725C55.2358 74.2087 51.311 74.1551 48.6148 76.7208C45.7089 79.4859 45.8114 82.7782 48.9761 86.6533C49.6492 87.4774 50.4535 88.1958 51.2085 88.9515Z" fill="black"/>
</svg>
