<svg width="200" height="200" viewBox="0 0 200 200" fill="none" xmlns="http://www.w3.org/2000/svg">
<path d="M139.502 56.7773C139.283 57.8715 138.736 58.8563 137.86 59.5129C136.8 60.2015 135.533 60.5016 134.276 60.3619C133.02 60.2223 131.85 59.6516 130.966 58.7469C130.09 57.4215 129.667 55.8469 129.763 54.2605C129.763 52.6192 130.091 51.0872 130.966 49.7741C131.951 48.5705 133.374 47.9139 134.906 48.0233C135.891 47.9139 136.875 48.2422 137.751 48.7893C138.517 49.3364 139.064 50.2118 139.283 51.0872H141.909C141.848 50.3238 141.633 49.5808 141.275 48.9035C140.918 48.2262 140.426 47.6288 139.83 47.148C138.469 46.0607 136.754 45.515 135.015 45.616C133.877 45.5592 132.742 45.7667 131.698 46.2224C130.653 46.678 129.729 47.3694 128.997 48.2422C127.684 49.993 127.027 52.072 127.027 54.2605C126.918 56.3396 127.574 58.5281 128.887 60.1694C129.872 61.3731 131.295 62.1391 132.717 62.4674C133.483 62.7956 134.249 62.7956 135.015 62.7956C135.672 62.7956 136.328 62.6862 136.875 62.4674C137.86 62.3579 138.845 61.9202 139.611 61.2637C141.034 60.1694 141.909 58.5281 142.237 56.7773H139.502ZM155.259 54.4794C153.946 53.7134 152.414 53.2757 150.991 52.838C150.116 52.5097 149.35 52.2909 148.584 51.9626C148.365 51.8532 148.256 51.8532 148.146 51.7438C147.49 51.5249 147.052 50.8684 146.942 50.1024C146.942 49.3364 147.38 48.6799 148.037 48.3516C148.256 48.2422 148.365 48.2422 148.584 48.2422C149.131 48.0233 149.787 47.9139 150.444 47.9139C151.319 47.9139 152.304 48.1328 153.18 48.5705C153.836 49.227 154.274 49.993 154.383 50.8684H157.009C157.009 49.227 156.244 47.8045 155.04 46.8197C154.088 46.2238 153.019 45.8375 151.906 45.6866C150.793 45.5356 149.66 45.6235 148.584 45.9443C147.818 46.0537 146.942 46.382 146.176 46.8197C144.863 47.5856 144.207 48.8987 144.207 50.2118C144.097 51.6343 144.863 52.9474 146.176 53.604C146.942 53.9323 147.708 54.2605 148.584 54.4794C149.022 54.6982 149.569 54.9171 150.006 55.0265C151.867 55.5736 152.851 55.9019 153.18 56.1207C154.055 56.449 154.712 57.215 154.712 58.1998C154.712 58.8564 154.274 59.5129 153.727 59.8412C152.851 60.2789 151.757 60.4977 150.772 60.3883C150.026 60.5034 149.263 60.3889 148.584 60.06C148.365 59.9506 148.037 59.8412 147.818 59.7317C146.99 59.0057 146.48 57.9845 146.395 56.8867H143.769C143.66 58.7469 144.535 60.4977 146.067 61.592C148.365 62.7956 151.101 63.1239 153.508 62.3579C154.274 62.1391 155.04 61.9202 155.696 61.4825C156.9 60.7166 157.557 59.4035 157.447 57.981C157.455 57.2492 157.253 56.5305 156.865 55.91C156.477 55.2894 155.92 54.793 155.259 54.4794ZM170.359 45.9443L165.873 59.4035L161.277 45.9443H158.323L164.122 62.3579V62.4674H167.405V62.3579L173.314 45.9443H170.359ZM125.824 75.1606V93.9816H174.517V75.1606H125.824ZM125.824 103.283V122.104H174.517V103.283H125.824ZM125.824 131.405V150.335H174.517V131.405H125.824ZM139.502 56.7773C139.283 57.8715 138.736 58.8563 137.86 59.5129C136.8 60.2015 135.533 60.5016 134.276 60.3619C133.02 60.2223 131.85 59.6516 130.966 58.7469C130.09 57.4215 129.667 55.8469 129.763 54.2605C129.763 52.6192 130.091 51.0872 130.966 49.7741C131.951 48.5705 133.374 47.9139 134.906 48.0233C135.891 47.9139 136.875 48.2422 137.751 48.7893C138.517 49.3364 139.064 50.2118 139.283 51.0872H141.909C141.848 50.3238 141.633 49.5808 141.275 48.9035C140.918 48.2262 140.426 47.6288 139.83 47.148C138.469 46.0607 136.754 45.515 135.015 45.616C133.877 45.5592 132.742 45.7667 131.698 46.2224C130.653 46.678 129.729 47.3694 128.997 48.2422C127.684 49.993 127.027 52.072 127.027 54.2605C126.918 56.3396 127.574 58.5281 128.887 60.1694C129.872 61.3731 131.295 62.1391 132.717 62.4674C133.483 62.7956 134.249 62.7956 135.015 62.7956C135.672 62.7956 136.328 62.6862 136.875 62.4674C137.86 62.3579 138.845 61.9202 139.611 61.2637C141.034 60.1694 141.909 58.5281 142.237 56.7773H139.502ZM155.259 54.4794C153.946 53.7134 152.414 53.2757 150.991 52.838C150.116 52.5097 149.35 52.2909 148.584 51.9626C148.365 51.8532 148.256 51.8532 148.146 51.7438C147.49 51.5249 147.052 50.8684 146.942 50.1024C146.942 49.3364 147.38 48.6799 148.037 48.3516C148.256 48.2422 148.365 48.2422 148.584 48.2422C149.131 48.0233 149.787 47.9139 150.444 47.9139C151.319 47.9139 152.304 48.1328 153.18 48.5705C153.836 49.227 154.274 49.993 154.383 50.8684H157.009C157.009 49.227 156.244 47.8045 155.04 46.8197C154.088 46.2238 153.019 45.8375 151.906 45.6866C150.793 45.5356 149.66 45.6235 148.584 45.9443C147.818 46.0537 146.942 46.382 146.176 46.8197C144.863 47.5856 144.207 48.8987 144.207 50.2118C144.097 51.6343 144.863 52.9474 146.176 53.604C146.942 53.9323 147.708 54.2605 148.584 54.4794C149.022 54.6982 149.569 54.9171 150.006 55.0265C151.867 55.5736 152.851 55.9019 153.18 56.1207C154.055 56.449 154.712 57.215 154.712 58.1998C154.712 58.8564 154.274 59.5129 153.727 59.8412C152.851 60.2789 151.757 60.4977 150.772 60.3883C150.026 60.5034 149.263 60.3889 148.584 60.06C148.365 59.9506 148.037 59.8412 147.818 59.7317C146.99 59.0057 146.48 57.9845 146.395 56.8867H143.769C143.66 58.7469 144.535 60.4977 146.067 61.592C148.365 62.7956 151.101 63.1239 153.508 62.3579C154.274 62.1391 155.04 61.9202 155.696 61.4825C156.9 60.7166 157.557 59.4035 157.447 57.981C157.455 57.2492 157.253 56.5305 156.865 55.91C156.477 55.2894 155.92 54.793 155.259 54.4794ZM170.359 45.9443L165.873 59.4035L161.277 45.9443H158.323L164.122 62.3579V62.4674H167.405V62.3579L173.314 45.9443H170.359ZM125.824 75.1606V93.9816H174.517V75.1606H125.824ZM125.824 103.283V122.104H174.517V103.283H125.824ZM125.824 131.405V150.335H174.517V131.405H125.824ZM115.757 12.4604L113.896 12.7887L12.46 31.2814V169.375L112.802 187.102L114.991 187.43L115.757 187.539H115.866V12.4604H115.757ZM92.5586 115.866C91.7926 120.791 89.7135 125.496 86.6497 129.435C85.3366 131.186 83.6952 132.937 81.9444 134.359C81.1784 135.016 80.303 135.563 79.4276 136C74.7224 139.174 69.1418 140.706 63.3423 140.596C54.5883 140.596 47.4757 138.408 42.2234 133.921C40.8009 132.718 39.4878 131.405 38.2841 129.873V129.763C33.5789 123.854 31.1715 115.757 31.1715 106.018C31.1715 96.2795 33.6883 88.1821 38.5029 82.1637C39.816 80.4129 41.348 78.9904 42.9893 77.5679C46.4909 74.9417 50.5396 73.0815 55.2449 72.2061C57.6522 71.659 60.2784 71.4401 63.014 71.4401C65.7496 71.3307 68.4852 71.5496 71.1114 72.3155C75.2695 73.1909 79.2088 75.0511 82.7104 77.6773C87.7439 81.726 91.0266 87.6349 91.7926 94.2004L92.3397 97.4831H76.9109L76.2543 95.2946C76.0727 94.2514 75.7018 93.2501 75.1601 92.3402C74.3941 90.6988 73.1905 89.2763 71.7679 88.1821C69.9077 86.9784 67.6098 86.3219 65.4213 86.103C64.5459 85.9936 63.78 85.8842 62.9046 85.9936C62.1386 85.9936 61.3726 85.9936 60.6067 86.2124C56.3391 86.6501 53.0564 88.5103 50.7585 91.3554C50.5396 91.6836 50.2114 92.1213 50.2114 92.4496C48.0229 95.7323 46.9286 100.219 46.9286 106.018C46.9286 108.316 47.038 110.395 47.3663 112.255C47.9134 115.757 49.0077 118.711 50.649 120.9C51.8527 122.432 53.3847 123.636 55.2449 124.511C57.4334 125.496 60.0595 126.043 63.1234 126.043C65.3119 126.152 67.391 125.715 69.3606 124.839C70.3454 124.511 71.2208 123.964 72.0962 123.417C74.7224 121.119 76.4732 117.945 77.1297 114.553L77.6769 112.365H93.2151L92.5586 115.866ZM187.429 36.6432C187.539 36.0961 187.429 35.4396 187.32 34.8924V34.783C187.071 33.3349 186.383 31.9981 185.35 30.9532C184.623 30.1962 183.732 29.6154 182.746 29.2551C181.76 28.8948 180.704 28.7645 179.66 28.8741C161.715 28.5458 143.769 28.7647 125.824 28.7647V34.8924H181.521V165.217H125.824V171.345H175.612C179.004 171.345 182.724 171.454 185.679 169.375C187.648 166.202 187.539 162.262 187.539 158.542V79.4281C187.539 65.203 187.539 50.8684 187.429 36.6432ZM125.824 131.405V150.335H174.517V131.405H125.824ZM125.824 103.283V122.104H174.517V103.283H125.824ZM125.824 75.1606V93.9816H174.517V75.1606H125.824ZM170.359 45.9443L165.873 59.4035L161.277 45.9443H158.323L164.122 62.3579V62.4674H167.405V62.3579L173.314 45.9443H170.359ZM155.259 54.4794C153.946 53.7134 152.414 53.2757 150.991 52.838C150.116 52.5097 149.35 52.2909 148.584 51.9626C148.365 51.8532 148.256 51.8532 148.146 51.7438C147.49 51.5249 147.052 50.8684 146.942 50.1024C146.942 49.3364 147.38 48.6799 148.037 48.3516C148.256 48.2422 148.365 48.2422 148.584 48.2422C149.131 48.0233 149.787 47.9139 150.444 47.9139C151.319 47.9139 152.304 48.1328 153.18 48.5705C153.836 49.227 154.274 49.993 154.383 50.8684H157.009C157.009 49.227 156.244 47.8045 155.04 46.8197C154.088 46.2238 153.019 45.8375 151.906 45.6866C150.793 45.5356 149.66 45.6235 148.584 45.9443C147.818 46.0537 146.942 46.382 146.176 46.8197C144.863 47.5856 144.207 48.8987 144.207 50.2118C144.097 51.6343 144.863 52.9474 146.176 53.604C146.942 53.9323 147.708 54.2605 148.584 54.4794C149.022 54.6982 149.569 54.9171 150.006 55.0265C151.867 55.5736 152.851 55.9019 153.18 56.1207C154.055 56.449 154.712 57.215 154.712 58.1998C154.712 58.8564 154.274 59.5129 153.727 59.8412C152.851 60.2789 151.757 60.4977 150.772 60.3883C150.026 60.5034 149.263 60.3889 148.584 60.06C148.365 59.9506 148.037 59.8412 147.818 59.7317C146.99 59.0057 146.48 57.9845 146.395 56.8867H143.769C143.66 58.7469 144.535 60.4977 146.067 61.592C148.365 62.7956 151.101 63.1239 153.508 62.3579C154.274 62.1391 155.04 61.9202 155.696 61.4825C156.9 60.7166 157.557 59.4035 157.447 57.981C157.455 57.2492 157.253 56.5305 156.865 55.91C156.477 55.2894 155.92 54.793 155.259 54.4794ZM139.502 56.7773C139.283 57.8715 138.736 58.8563 137.86 59.5129C136.8 60.2015 135.533 60.5016 134.276 60.3619C133.02 60.2223 131.85 59.6516 130.966 58.7469C130.09 57.4215 129.667 55.8469 129.763 54.2605C129.763 52.6192 130.091 51.0872 130.966 49.7741C131.951 48.5705 133.374 47.9139 134.906 48.0233C135.891 47.9139 136.875 48.2422 137.751 48.7893C138.517 49.3364 139.064 50.2118 139.283 51.0872H141.909C141.848 50.3238 141.633 49.5808 141.275 48.9035C140.918 48.2262 140.426 47.6288 139.83 47.148C138.469 46.0607 136.754 45.515 135.015 45.616C133.877 45.5592 132.742 45.7667 131.698 46.2224C130.653 46.678 129.729 47.3694 128.997 48.2422C127.684 49.993 127.027 52.072 127.027 54.2605C126.918 56.3396 127.574 58.5281 128.887 60.1694C129.872 61.3731 131.295 62.1391 132.717 62.4674C133.483 62.7956 134.249 62.7956 135.015 62.7956C135.672 62.7956 136.328 62.6862 136.875 62.4674C137.86 62.3579 138.845 61.9202 139.611 61.2637C141.034 60.1694 141.909 58.5281 142.237 56.7773H139.502ZM125.824 103.283V122.104H174.517V103.283H125.824ZM125.824 131.405V150.335H174.517V131.405H125.824ZM139.502 56.7773C139.283 57.8715 138.736 58.8563 137.86 59.5129C136.8 60.2015 135.533 60.5016 134.276 60.3619C133.02 60.2223 131.85 59.6516 130.966 58.7469C130.09 57.4215 129.667 55.8469 129.763 54.2605C129.763 52.6192 130.091 51.0872 130.966 49.7741C131.951 48.5705 133.374 47.9139 134.906 48.0233C135.891 47.9139 136.875 48.2422 137.751 48.7893C138.517 49.3364 139.064 50.2118 139.283 51.0872H141.909C141.848 50.3238 141.633 49.5808 141.275 48.9035C140.918 48.2262 140.426 47.6288 139.83 47.148C138.469 46.0607 136.754 45.515 135.015 45.616C133.877 45.5592 132.742 45.7667 131.698 46.2224C130.653 46.678 129.729 47.3694 128.997 48.2422C127.684 49.993 127.027 52.072 127.027 54.2605C126.918 56.3396 127.574 58.5281 128.887 60.1694C129.872 61.3731 131.295 62.1391 132.717 62.4674C133.483 62.7956 134.249 62.7956 135.015 62.7956C135.672 62.7956 136.328 62.6862 136.875 62.4674C137.86 62.3579 138.845 61.9202 139.611 61.2637C141.034 60.1694 141.909 58.5281 142.237 56.7773H139.502ZM155.259 54.4794C153.946 53.7134 152.414 53.2757 150.991 52.838C150.116 52.5097 149.35 52.2909 148.584 51.9626C148.365 51.8532 148.256 51.8532 148.146 51.7438C147.49 51.5249 147.052 50.8684 146.942 50.1024C146.942 49.3364 147.38 48.6799 148.037 48.3516C148.256 48.2422 148.365 48.2422 148.584 48.2422C149.131 48.0233 149.787 47.9139 150.444 47.9139C151.319 47.9139 152.304 48.1328 153.18 48.5705C153.836 49.227 154.274 49.993 154.383 50.8684H157.009C157.009 49.227 156.244 47.8045 155.04 46.8197C154.088 46.2238 153.019 45.8375 151.906 45.6866C150.793 45.5356 149.66 45.6235 148.584 45.9443C147.818 46.0537 146.942 46.382 146.176 46.8197C144.863 47.5856 144.207 48.8987 144.207 50.2118C144.097 51.6343 144.863 52.9474 146.176 53.604C146.942 53.9323 147.708 54.2605 148.584 54.4794C149.022 54.6982 149.569 54.9171 150.006 55.0265C151.867 55.5736 152.851 55.9019 153.18 56.1207C154.055 56.449 154.712 57.215 154.712 58.1998C154.712 58.8564 154.274 59.5129 153.727 59.8412C152.851 60.2789 151.757 60.4977 150.772 60.3883C150.026 60.5034 149.263 60.3889 148.584 60.06C148.365 59.9506 148.037 59.8412 147.818 59.7317C146.99 59.0057 146.48 57.9845 146.395 56.8867H143.769C143.66 58.7469 144.535 60.4977 146.067 61.592C148.365 62.7956 151.101 63.1239 153.508 62.3579C154.274 62.1391 155.04 61.9202 155.696 61.4825C156.9 60.7166 157.557 59.4035 157.447 57.981C157.455 57.2492 157.253 56.5305 156.865 55.91C156.477 55.2894 155.92 54.793 155.259 54.4794ZM170.359 45.9443L165.873 59.4035L161.277 45.9443H158.323L164.122 62.3579V62.4674H167.405V62.3579L173.314 45.9443H170.359ZM125.824 75.1606V93.9816H174.517V75.1606H125.824ZM125.824 131.405V150.335H174.517V131.405H125.824ZM125.824 103.283V122.104H174.517V103.283H125.824ZM125.824 75.1606V93.9816H174.517V75.1606H125.824ZM170.359 45.9443L165.873 59.4035L161.277 45.9443H158.323L164.122 62.3579V62.4674H167.405V62.3579L173.314 45.9443H170.359ZM155.259 54.4794C153.946 53.7134 152.414 53.2757 150.991 52.838C150.116 52.5097 149.35 52.2909 148.584 51.9626C148.365 51.8532 148.256 51.8532 148.146 51.7438C147.49 51.5249 147.052 50.8684 146.942 50.1024C146.942 49.3364 147.38 48.6799 148.037 48.3516C148.256 48.2422 148.365 48.2422 148.584 48.2422C149.131 48.0233 149.787 47.9139 150.444 47.9139C151.319 47.9139 152.304 48.1328 153.18 48.5705C153.836 49.227 154.274 49.993 154.383 50.8684H157.009C157.009 49.227 156.244 47.8045 155.04 46.8197C154.088 46.2238 153.019 45.8375 151.906 45.6866C150.793 45.5356 149.66 45.6235 148.584 45.9443C147.818 46.0537 146.942 46.382 146.176 46.8197C144.863 47.5856 144.207 48.8987 144.207 50.2118C144.097 51.6343 144.863 52.9474 146.176 53.604C146.942 53.9323 147.708 54.2605 148.584 54.4794C149.022 54.6982 149.569 54.9171 150.006 55.0265C151.867 55.5736 152.851 55.9019 153.18 56.1207C154.055 56.449 154.712 57.215 154.712 58.1998C154.712 58.8564 154.274 59.5129 153.727 59.8412C152.851 60.2789 151.757 60.4977 150.772 60.3883C150.026 60.5034 149.263 60.3889 148.584 60.06C148.365 59.9506 148.037 59.8412 147.818 59.7317C146.99 59.0057 146.48 57.9845 146.395 56.8867H143.769C143.66 58.7469 144.535 60.4977 146.067 61.592C148.365 62.7956 151.101 63.1239 153.508 62.3579C154.274 62.1391 155.04 61.9202 155.696 61.4825C156.9 60.7166 157.557 59.4035 157.447 57.981C157.455 57.2492 157.253 56.5305 156.865 55.91C156.477 55.2894 155.92 54.793 155.259 54.4794ZM139.502 56.7773C139.283 57.8715 138.736 58.8563 137.86 59.5129C136.8 60.2015 135.533 60.5016 134.276 60.3619C133.02 60.2223 131.85 59.6516 130.966 58.7469C130.09 57.4215 129.667 55.8469 129.763 54.2605C129.763 52.6192 130.091 51.0872 130.966 49.7741C131.951 48.5705 133.374 47.9139 134.906 48.0233C135.891 47.9139 136.875 48.2422 137.751 48.7893C138.517 49.3364 139.064 50.2118 139.283 51.0872H141.909C141.848 50.3238 141.633 49.5808 141.275 48.9035C140.918 48.2262 140.426 47.6288 139.83 47.148C138.469 46.0607 136.754 45.515 135.015 45.616C133.877 45.5592 132.742 45.7667 131.698 46.2224C130.653 46.678 129.729 47.3694 128.997 48.2422C127.684 49.993 127.027 52.072 127.027 54.2605C126.918 56.3396 127.574 58.5281 128.887 60.1694C129.872 61.3731 131.295 62.1391 132.717 62.4674C133.483 62.7956 134.249 62.7956 135.015 62.7956C135.672 62.7956 136.328 62.6862 136.875 62.4674C137.86 62.3579 138.845 61.9202 139.611 61.2637C141.034 60.1694 141.909 58.5281 142.237 56.7773H139.502ZM125.824 103.283V122.104H174.517V103.283H125.824ZM125.824 75.1606V93.9816H174.517V75.1606H125.824ZM170.359 45.9443L165.873 59.4035L161.277 45.9443H158.323L164.122 62.3579V62.4674H167.405V62.3579L173.314 45.9443H170.359ZM155.259 54.4794C153.946 53.7134 152.414 53.2757 150.991 52.838C150.116 52.5097 149.35 52.2909 148.584 51.9626C148.365 51.8532 148.256 51.8532 148.146 51.7438C147.49 51.5249 147.052 50.8684 146.942 50.1024C146.942 49.3364 147.38 48.6799 148.037 48.3516C148.256 48.2422 148.365 48.2422 148.584 48.2422C149.131 48.0233 149.787 47.9139 150.444 47.9139C151.319 47.9139 152.304 48.1328 153.18 48.5705C153.836 49.227 154.274 49.993 154.383 50.8684H157.009C157.009 49.227 156.244 47.8045 155.04 46.8197C154.088 46.2238 153.019 45.8375 151.906 45.6866C150.793 45.5356 149.66 45.6235 148.584 45.9443C147.818 46.0537 146.942 46.382 146.176 46.8197C144.863 47.5856 144.207 48.8987 144.207 50.2118C144.097 51.6343 144.863 52.9474 146.176 53.604C146.942 53.9323 147.708 54.2605 148.584 54.4794C149.022 54.6982 149.569 54.9171 150.006 55.0265C151.867 55.5736 152.851 55.9019 153.18 56.1207C154.055 56.449 154.712 57.215 154.712 58.1998C154.712 58.8564 154.274 59.5129 153.727 59.8412C152.851 60.2789 151.757 60.4977 150.772 60.3883C150.026 60.5034 149.263 60.3889 148.584 60.06C148.365 59.9506 148.037 59.8412 147.818 59.7317C146.99 59.0057 146.48 57.9845 146.395 56.8867H143.769C143.66 58.7469 144.535 60.4977 146.067 61.592C148.365 62.7956 151.101 63.1239 153.508 62.3579C154.274 62.1391 155.04 61.9202 155.696 61.4825C156.9 60.7166 157.557 59.4035 157.447 57.981C157.455 57.2492 157.253 56.5305 156.865 55.91C156.477 55.2894 155.92 54.793 155.259 54.4794ZM125.824 131.405V150.335H174.517V131.405H125.824ZM139.502 56.7773C139.283 57.8715 138.736 58.8563 137.86 59.5129C136.8 60.2015 135.533 60.5016 134.276 60.3619C133.02 60.2223 131.85 59.6516 130.966 58.7469C130.09 57.4215 129.667 55.8469 129.763 54.2605C129.763 52.6192 130.091 51.0872 130.966 49.7741C131.951 48.5705 133.374 47.9139 134.906 48.0233C135.891 47.9139 136.875 48.2422 137.751 48.7893C138.517 49.3364 139.064 50.2118 139.283 51.0872H141.909C141.848 50.3238 141.633 49.5808 141.275 48.9035C140.918 48.2262 140.426 47.6288 139.83 47.148C138.469 46.0607 136.754 45.515 135.015 45.616C133.877 45.5592 132.742 45.7667 131.698 46.2224C130.653 46.678 129.729 47.3694 128.997 48.2422C127.684 49.993 127.027 52.072 127.027 54.2605C126.918 56.3396 127.574 58.5281 128.887 60.1694C129.872 61.3731 131.295 62.1391 132.717 62.4674C133.483 62.7956 134.249 62.7956 135.015 62.7956C135.672 62.7956 136.328 62.6862 136.875 62.4674C137.86 62.3579 138.845 61.9202 139.611 61.2637C141.034 60.1694 141.909 58.5281 142.237 56.7773H139.502ZM155.259 54.4794C153.946 53.7134 152.414 53.2757 150.991 52.838C150.116 52.5097 149.35 52.2909 148.584 51.9626C148.365 51.8532 148.256 51.8532 148.146 51.7438C147.49 51.5249 147.052 50.8684 146.942 50.1024C146.942 49.3364 147.38 48.6799 148.037 48.3516C148.256 48.2422 148.365 48.2422 148.584 48.2422C149.131 48.0233 149.787 47.9139 150.444 47.9139C151.319 47.9139 152.304 48.1328 153.18 48.5705C153.836 49.227 154.274 49.993 154.383 50.8684H157.009C157.009 49.227 156.244 47.8045 155.04 46.8197C154.088 46.2238 153.019 45.8375 151.906 45.6866C150.793 45.5356 149.66 45.6235 148.584 45.9443C147.818 46.0537 146.942 46.382 146.176 46.8197C144.863 47.5856 144.207 48.8987 144.207 50.2118C144.097 51.6343 144.863 52.9474 146.176 53.604C146.942 53.9323 147.708 54.2605 148.584 54.4794C149.022 54.6982 149.569 54.9171 150.006 55.0265C151.867 55.5736 152.851 55.9019 153.18 56.1207C154.055 56.449 154.712 57.215 154.712 58.1998C154.712 58.8564 154.274 59.5129 153.727 59.8412C152.851 60.2789 151.757 60.4977 150.772 60.3883C150.026 60.5034 149.263 60.3889 148.584 60.06C148.365 59.9506 148.037 59.8412 147.818 59.7317C146.99 59.0057 146.48 57.9845 146.395 56.8867H143.769C143.66 58.7469 144.535 60.4977 146.067 61.592C148.365 62.7956 151.101 63.1239 153.508 62.3579C154.274 62.1391 155.04 61.9202 155.696 61.4825C156.9 60.7166 157.557 59.4035 157.447 57.981C157.455 57.2492 157.253 56.5305 156.865 55.91C156.477 55.2894 155.92 54.793 155.259 54.4794ZM139.502 56.7773C139.283 57.8715 138.736 58.8563 137.86 59.5129C136.8 60.2015 135.533 60.5016 134.276 60.3619C133.02 60.2223 131.85 59.6516 130.966 58.7469C130.09 57.4215 129.667 55.8469 129.763 54.2605C129.763 52.6192 130.091 51.0872 130.966 49.7741C131.951 48.5705 133.374 47.9139 134.906 48.0233C135.891 47.9139 136.875 48.2422 137.751 48.7893C138.517 49.3364 139.064 50.2118 139.283 51.0872H141.909C141.848 50.3238 141.633 49.5808 141.275 48.9035C140.918 48.2262 140.426 47.6288 139.83 47.148C138.469 46.0607 136.754 45.515 135.015 45.616C133.877 45.5592 132.742 45.7667 131.698 46.2224C130.653 46.678 129.729 47.3694 128.997 48.2422C127.684 49.993 127.027 52.072 127.027 54.2605C126.918 56.3396 127.574 58.5281 128.887 60.1694C129.872 61.3731 131.295 62.1391 132.717 62.4674C133.483 62.7956 134.249 62.7956 135.015 62.7956C135.672 62.7956 136.328 62.6862 136.875 62.4674C137.86 62.3579 138.845 61.9202 139.611 61.2637C141.034 60.1694 141.909 58.5281 142.237 56.7773H139.502ZM170.359 45.9443L165.873 59.4035L161.277 45.9443H158.323L164.122 62.3579V62.4674H167.405V62.3579L173.314 45.9443H170.359ZM125.824 75.1606V93.9816H174.517V75.1606H125.824ZM125.824 103.283V122.104H174.517V103.283H125.824ZM125.824 131.405V150.335H174.517V131.405H125.824Z" fill="#CF472D"/>
</svg>
