<svg width="200" height="200" viewBox="0 0 200 200" fill="none" xmlns="http://www.w3.org/2000/svg">
<path d="M184.277 35.0977H125.625V45.957H142.91V63.125H125.625V68.5938H142.91V85.7813H125.625V91.4062H142.91V107.656H125.625V114.18H142.91V130.469H125.625V136.992H142.91V153.379H125.625V165.332H184.277C185.195 165.059 185.977 163.965 186.602 162.07C187.227 160.156 187.539 158.613 187.539 157.422V37.0703C187.539 36.1328 187.227 35.5664 186.602 35.3711C185.84 35.1758 185.059 35.0781 184.277 35.0977ZM176.66 153.359H148.535V136.992H176.68L176.66 153.359ZM176.66 130.469H148.535V114.16H176.68L176.66 130.469ZM176.66 107.656H148.535V91.4648H176.68L176.66 107.656ZM176.66 85.7813H148.535V68.6133H176.68L176.66 85.7813ZM176.66 63.0273H148.535V45.957H176.68V63.1445L176.66 63.0273ZM12.4609 32.3828V168.066L115.762 185.938V14.0625L12.4609 32.4414V32.3828ZM73.6914 135.02C73.3008 133.945 71.4453 129.434 68.1641 121.426C66.2695 116.758 64.3164 112.09 62.3438 107.441H62.168L51.0938 133.809L36.2891 132.812L53.8281 100L37.7344 67.1875L52.832 66.3867L62.8125 92.0703H63.0078L74.2773 65.2148L89.8828 64.2383L71.3086 99.7656L90.4492 135.996L73.6914 135.02Z" fill="#107B0F"/>
</svg>
