<svg width="200" height="200" viewBox="0 0 200 200" fill="none" xmlns="http://www.w3.org/2000/svg">
<path d="M49.7344 103.246H63.1659V117.403H49.7344V103.246ZM109.742 110.324C109.742 107.575 107.512 105.489 104.759 105.489H79.4942C76.7497 105.489 74.5201 107.575 74.5201 110.324C74.5201 113.069 76.7497 115.155 79.4942 115.155H104.759C107.512 115.155 109.742 113.069 109.742 110.324ZM49.7344 75.6619H63.1659V89.8187H49.7344V75.6619ZM123.174 82.7403C123.174 79.9913 120.944 77.9049 118.191 77.9049H79.4942C76.7497 77.9049 74.5201 79.9913 74.5201 82.7403C74.5201 85.4848 76.7497 87.5712 79.4942 87.5712H118.191C120.944 87.5757 123.174 85.4893 123.174 82.7403Z" fill="black"/>
<path d="M79.4942 133.068C76.7497 133.068 74.5201 135.159 74.5201 137.904C74.5201 140.648 76.7497 142.739 79.4942 142.739H92.1289C94.8734 142.739 97.103 140.648 97.103 137.904C97.103 135.159 94.8734 133.068 92.1289 133.068H79.4942ZM49.7344 130.749H63.1659V145.054H49.7344V130.749Z" fill="black"/>
<path d="M104.46 159.806H52.0544C45.5938 159.806 40.1719 154.756 40.1719 148.295V73.5263C40.1719 67.0613 45.5938 61.7603 52.0544 61.7603H121.039C127.495 61.7603 132.953 67.0613 132.953 73.5263V101.594C132.947 102.36 133.092 103.12 133.381 103.83C133.669 104.54 134.095 105.186 134.634 105.73C135.172 106.275 135.813 106.709 136.52 107.005C137.226 107.302 137.984 107.456 138.751 107.459C139.518 107.458 140.278 107.305 140.986 107.009C141.694 106.713 142.336 106.28 142.876 105.735C143.416 105.19 143.843 104.544 144.133 103.833C144.422 103.122 144.568 102.361 144.562 101.594V73.5263C144.562 60.5873 133.978 49.936 121.039 49.936H52.0544C39.1198 49.936 28.3477 60.5828 28.3477 73.5263V148.295C28.3477 161.23 39.1198 171.63 52.0544 171.63H104.46C106.028 171.63 107.532 171.008 108.64 169.899C109.749 168.79 110.372 167.286 110.372 165.718C110.372 164.15 109.749 162.647 108.64 161.538C107.532 160.429 106.028 159.806 104.46 159.806Z" fill="black"/>
<path d="M165.058 145.506C164.006 144.852 164.037 142.542 163.867 141.88C163.67 141.127 164.024 139.345 165.193 137.89C166.397 136.399 168.425 135.253 168.452 135.02C168.662 132.706 167.951 130.1 165.381 128.323C163.894 127.293 161.799 129.599 159.399 129.755C157.774 129.863 156.699 128.403 156.359 128.161C151.51 124.638 154.756 120.282 154.3 119.516C153.897 118.835 150.691 116.368 147.579 117.183C144.665 117.944 145.56 121.558 143.353 123.12C142.65 123.608 140.613 123.689 139.417 123.554C135.289 123.084 134.703 117.837 131.842 118.612C129.066 119.364 126.769 121.58 126.604 123.384C126.438 125.26 128.618 126.442 128.529 128.403C128.475 129.424 127.298 130.628 126.85 131.47C126.478 132.155 124.817 133.198 122.915 133.252C121.37 133.306 119.628 132.397 118.581 132.652C117.819 132.84 116.436 134.331 116.266 135.75C116.051 137.465 115.299 139.036 116.49 140.783C117.761 142.654 119.284 141.647 121.124 143.353C122.292 144.445 122.073 145.77 122.153 146.343C122.331 148.035 121.855 149.732 120.824 151.085C120 152.092 118.196 152.553 117.896 153.52C116.942 156.587 118.939 159.264 120.282 160.294C122.122 161.704 124.978 159.121 127.298 158.996C128.587 158.92 129.577 159.999 130.226 160.778C131.067 161.799 131.932 163.052 131.932 164.731C131.932 166.025 131.175 167.628 131.636 168.743C132.437 170.686 135.477 171.63 137.694 171.63C140.546 171.63 140.577 167.776 142.171 165.94C143.317 164.61 144.799 164.906 145.283 164.883C146.223 164.834 147.942 164.977 149.375 166.186C150.136 166.831 150.516 168.546 151.269 169.056C152.764 170.072 154.188 170.063 154.895 169.678C156.476 168.837 157.975 168.331 159.265 166.316C160.133 164.968 157.743 162.994 157.716 160.711C157.702 158.66 159.556 157.008 159.914 156.484C160.272 155.956 162.314 155.154 163.926 155.213C165.734 155.271 167.342 155.821 167.637 155.674C168.765 155.105 168.931 154.541 169.509 153.104C170.037 151.792 170.082 150.964 170.082 149.495C170.073 147.239 167.019 146.715 165.058 145.506ZM143.084 156.972C141.427 157.004 139.78 156.705 138.24 156.093C136.7 155.481 135.298 154.568 134.114 153.407C132.931 152.246 131.991 150.862 131.35 149.334C130.708 147.806 130.377 146.165 130.377 144.508C130.376 142.85 130.707 141.21 131.348 139.681C131.989 138.153 132.928 136.768 134.111 135.607C135.294 134.446 136.696 133.532 138.236 132.92C139.776 132.307 141.423 132.008 143.08 132.039C146.345 132.1 149.456 133.44 151.744 135.771C154.032 138.102 155.314 141.237 155.315 144.503C155.315 147.769 154.034 150.905 151.747 153.237C149.46 155.568 146.35 156.91 143.084 156.972ZM148.479 28.3694H56.0388C51.8884 28.3694 49.0857 30.111 49.0902 34.9374C49.0141 37.664 50.8407 40.1847 54.9732 40.1936H148.479C154.935 40.1936 160.039 45.1454 160.039 51.6105V79.678C160.033 80.4449 160.178 81.2056 160.466 81.9163C160.755 82.627 161.181 83.2736 161.72 83.8191C162.259 84.3645 162.901 84.798 163.609 85.0947C164.316 85.3913 165.075 85.5452 165.842 85.5475C169.07 85.5475 171.653 82.9239 171.653 79.678V51.606C171.653 38.6669 161.414 28.3694 148.479 28.3694Z" fill="black"/>
</svg>
