<svg width="200" height="200" viewBox="0 0 200 200" fill="none" xmlns="http://www.w3.org/2000/svg">
<path d="M101.785 106.171C103.526 106.171 104.875 106.806 106.313 107.97L123.808 128.369C124.649 129.234 125.214 130.328 125.434 131.514C125.653 132.7 125.516 133.925 125.04 135.033C124.564 136.141 123.77 137.083 122.759 137.74C121.748 138.397 120.564 138.74 119.358 138.726C117.618 138.726 116.337 137.777 115.212 136.603L107.672 128.047V158.802C107.672 162.489 105.032 164.846 101.785 164.846C98.3918 164.846 95.9861 162.499 95.9861 158.802V128.056L88.4561 136.603C87.8781 137.238 87.1806 137.751 86.4037 138.116C85.6267 138.48 84.7856 138.687 83.9284 138.726C80.8382 138.726 78.1196 135.899 78.1196 132.682C78.1196 130.873 78.8041 129.533 79.4789 128.36L97.3356 107.98C97.9157 107.392 98.6093 106.928 99.3743 106.617C100.139 106.306 100.96 106.154 101.785 106.171ZM99.7218 35.1543C109.811 35.1616 119.633 38.3978 127.75 44.3894C135.867 50.381 141.854 58.8134 144.833 68.4524C153.331 69.7335 161.164 73.7331 167.257 79.982C174.494 87.3734 178.536 97.3127 178.513 107.657C178.513 118.248 174.395 128.193 166.905 135.684C163.232 139.379 158.863 142.308 154.05 144.302C149.238 146.297 144.077 147.316 138.868 147.302C134.017 147.077 131.592 144.896 131.592 140.769C131.592 136.633 134.017 134.569 138.868 134.569C146.003 134.562 152.844 131.724 157.889 126.678C162.934 121.633 165.772 114.792 165.78 107.657C165.818 100.636 163.094 93.8819 158.197 88.8509C153.299 83.82 146.621 80.9157 139.601 80.7644L134.516 80.6177L133.528 75.6303C131.965 67.8118 127.744 60.7754 121.581 55.7162C115.419 50.6571 107.695 47.8872 99.7218 47.877C91.9968 47.8572 84.4906 50.4416 78.4152 55.2128C72.3398 59.9841 68.0498 66.6637 66.2379 74.1732L65.1524 78.6423L60.566 79.0139C53.3954 79.6429 46.7184 82.9282 41.8447 88.2253C36.9709 93.5224 34.2519 100.449 34.2209 107.647C34.2312 115.263 37.2619 122.564 42.6481 127.948C48.0343 133.333 55.3362 136.361 62.9521 136.369C66.8833 136.955 68.8587 139.009 68.8587 142.569C68.8587 146.128 66.8833 148.309 62.9521 149.111C57.5049 149.126 52.1089 148.06 47.0765 145.975C42.044 143.89 37.4751 140.828 33.6341 136.965C29.7728 133.125 26.7112 128.558 24.6264 123.527C22.5416 118.497 21.475 113.103 21.4884 107.657C21.4884 97.1738 25.4001 87.1795 32.5193 79.4931C38.5136 73.0007 46.4307 68.6 55.1092 66.9366C58.0234 58.5265 63.3237 50.9966 70.3451 45.4225C78.688 38.7645 89.0479 35.1433 99.7218 35.1543Z" fill="black"/>
</svg>
